<?xml version="1.0" encoding="UTF-8" standalone="no" ?>
<!DOCTYPE svg PUBLIC "-//W3C//DTD SVG 1.1//EN" "http://www.w3.org/Graphics/SVG/1.1/DTD/svg11.dtd">
<svg xmlns="http://www.w3.org/2000/svg" xmlns:xlink="http://www.w3.org/1999/xlink" version="1.1" width="25" height="25" viewBox="0 0 25 25" xml:space="preserve">
<desc>Created with Fabric.js 5.2.4</desc>
<defs>
</defs>
<g transform="matrix(1 0 0 1 12.5 12.5)" id="265b8b3d-ae2e-4bfc-96bd-d2b8daf1ed8e"  >
<rect style="stroke: none; stroke-width: 1; stroke-dasharray: none; stroke-linecap: butt; stroke-dashoffset: 0; stroke-linejoin: miter; stroke-miterlimit: 4; fill: rgb(255,255,255); fill-rule: nonzero; opacity: 1; visibility: hidden;" vector-effect="non-scaling-stroke"  x="-12.5" y="-12.5" rx="0" ry="0" width="25" height="25" />
</g>
<g transform="matrix(Infinity NaN NaN Infinity 0 0)" id="f16deaf7-cf78-46fc-ac14-07ec20dcd8bf"  >
</g>
<g transform="matrix(1 0 0 1 12.5 12.5)" id="95920552-1742-49d3-aa20-1070c49e6cbf"  >
<path style="stroke: rgb(0,0,0); stroke-width: 0; stroke-dasharray: none; stroke-linecap: butt; stroke-dashoffset: 0; stroke-linejoin: miter; stroke-miterlimit: 4; fill: rgb(128,0,128); fill-rule: nonzero; opacity: 1;" vector-effect="non-scaling-stroke"  transform=" translate(-12.5, -12.5)" d="M 12.5 8.88178e-16 C 9.18479 1.77636e-15 6.00537 1.31696 3.66117 3.66117 C 1.31696 6.00537 2.66454e-15 9.18479 0 12.5 C 3.55271e-15 15.8152 1.31696 18.9946 3.66117 21.3388 C 6.00537 23.683 9.18479 25 12.5 25 C 15.8152 25 18.9946 23.683 21.3388 21.3388 C 23.683 18.9946 25 15.8152 25 12.5 C 25 9.18479 23.683 6.00537 21.3388 3.66117 C 18.9946 1.31696 15.8152 1.44329e-15 12.5 0 L 12.5 8.88178e-16 Z M 12.5 4.5 C 16.9124 4.5 20.5 8.0877 20.5 12.5 C 20.5 16.9124 16.9124 20.5 12.5 20.5 C 8.08764 20.5 4.5 16.9124 4.5 12.5 C 4.5 8.0877 8.08764 4.5 12.5 4.5 Z M 12.5 5.5 C 12.2687 5.5 12.0153 5.61689 11.7266 5.92969 C 11.4378 6.24249 11.1438 6.74051 10.8945 7.37891 C 10.6615 7.97581 10.4715 8.6998 10.3301 9.5 L 14.6699 9.5 C 14.5285 8.6998 14.3385 7.97581 14.1055 7.37891 C 13.8562 6.74051 13.5622 6.24249 13.2734 5.92969 C 12.9847 5.61689 12.7313 5.5 12.5 5.5 Z M 10.5996 5.76562 C 8.64111 6.31582 7.03707 7.6929 6.17969 9.5 L 9.30664 9.5 C 9.45913 8.5741 9.68224 7.73443 9.96289 7.01562 C 10.1479 6.54192 10.3605 6.12572 10.5996 5.76562 Z M 14.4004 5.76562 C 14.6395 6.12572 14.8521 6.54192 15.0371 7.01562 C 15.3178 7.73443 15.5409 8.5741 15.6934 9.5 L 18.8203 9.5 C 17.9629 7.6929 16.3589 6.31582 14.4004 5.76562 Z M 5.79297 10.5 C 5.60485 11.1338 5.5 11.8044 5.5 12.5 C 5.5 13.1963 5.6045 13.8657 5.79297 14.5 L 9.1875 14.5 C 9.12027 13.8572 9.07227 13.1956 9.07227 12.5 C 9.07227 11.8044 9.12027 11.1425 9.1875 10.5 L 5.79297 10.5 Z M 10.1953 10.5 C 10.1238 11.1382 10.0723 11.8008 10.0723 12.5 C 10.0723 13.1999 10.1237 13.8609 10.1953 14.5 L 14.8047 14.5 C 14.8763 13.8609 14.9277 13.1999 14.9277 12.5 C 14.9277 11.8008 14.8762 11.1382 14.8047 10.5 L 10.1953 10.5 Z M 15.8125 10.5 C 15.8797 11.1425 15.9277 11.8044 15.9277 12.5 C 15.9277 13.1956 15.8797 13.8572 15.8125 14.5 L 19.207 14.5 C 19.3955 13.8657 19.5 13.1963 19.5 12.5 C 19.5 11.8044 19.3952 11.1338 19.207 10.5 L 15.8125 10.5 Z M 6.18164 15.5 C 7.03904 17.3054 8.64083 18.6822 10.5977 19.2324 C 10.3591 18.8728 10.1475 18.459 9.96289 17.9863 C 9.68224 17.2676 9.45913 16.4264 9.30664 15.5 L 6.18164 15.5 Z M 10.332 15.5 C 10.4734 16.2999 10.6617 17.0267 10.8945 17.623 C 11.1438 18.2615 11.4378 18.7595 11.7266 19.0723 C 12.0153 19.3851 12.2687 19.5 12.5 19.5 C 12.7313 19.5 12.9847 19.3851 13.2734 19.0723 C 13.5622 18.7595 13.8562 18.2615 14.1055 17.623 C 14.3383 17.0267 14.5266 16.2999 14.668 15.5 L 10.332 15.5 Z M 15.6934 15.5 C 15.5409 16.4264 15.3178 17.2676 15.0371 17.9863 C 14.8525 18.459 14.6409 18.8728 14.4023 19.2324 C 16.3592 18.6822 17.961 17.3054 18.8184 15.5 L 15.6934 15.5 Z" stroke-linecap="round" />
</g>
<g transform="matrix(NaN NaN NaN NaN 0 0)"  >
<g style=""   >
</g>
</g>
<g transform="matrix(NaN NaN NaN NaN 0 0)"  >
<g style=""   >
</g>
</g>
</svg>