<svg xmlns="http://www.w3.org/2000/svg" xmlns:xlink="http://www.w3.org/1999/xlink" version="1.1" width="1000" height="1000" viewBox="0 0 1000 1000" xml:space="preserve">
<desc>Created with Fabric.js 3.5.0</desc>
<defs>
</defs>
<rect x="0" y="0" width="100%" height="100%" fill="#ffffff"/>
<g transform="matrix(39.7124 0 0 39.7124 498.4538 498.4538)" id="49914">
<path style="stroke: none; stroke-width: 1; stroke-dasharray: none; stroke-linecap: butt; stroke-dashoffset: 0; stroke-linejoin: miter; stroke-miterlimit: 4; is-custom-font: none; font-file-url: none; fill: rgb(128,0,128); fill-rule: nonzero; opacity: 1;" vector-effect="non-scaling-stroke" transform=" translate(-12.5, -12.5)" d="M 12.5 8.88178e-16 C 9.18479 1.77636e-15 6.00537 1.31696 3.66117 3.66117 C 1.31696 6.00537 2.66454e-15 9.18479 0 12.5 C 3.55271e-15 15.8152 1.31696 18.9946 3.66117 21.3388 C 6.00537 23.683 9.18479 25 12.5 25 C 15.8152 25 18.9946 23.683 21.3388 21.3388 C 23.683 18.9946 25 15.8152 25 12.5 C 25 9.18479 23.683 6.00537 21.3388 3.66117 C 18.9946 1.31696 15.8152 1.44329e-15 12.5 0 L 12.5 8.88178e-16 Z M 12.5 6 C 15.2555 6 17.5 8.2445 17.5 11 C 17.5 14.8348 13.8533 18.3537 12.8535 19.3535 L 12.5 19.707 L 12.1465 19.3535 C 11.1454 18.3524 7.5 14.8248 7.5 11 C 7.5 8.2445 9.7445 6 12.5 6 Z M 12.5 7 C 10.2849 7 8.5 8.7849 8.5 11 C 8.5 13.9376 11.292 16.99 12.5 18.2285 C 13.709 16.9904 16.5 13.9488 16.5 11 C 16.5 8.7849 14.7151 7 12.5 7 Z M 12.5 9 C 13.5986 9 14.5 9.9013 14.5 11 C 14.5 12.0986 13.5986 13 12.5 13 C 11.4014 13 10.5 12.0986 10.5 11 C 10.5 9.9013 11.4014 9 12.5 9 Z M 12.5 10 C 11.9418 10 11.5 10.4418 11.5 11 C 11.5 11.5582 11.9418 12 12.5 12 C 13.0582 12 13.5 11.5582 13.5 11 C 13.5 10.4418 13.0582 10 12.5 10 Z" stroke-linecap="round"/>
</g>
</svg>