<svg xmlns="http://www.w3.org/2000/svg" xmlns:xlink="http://www.w3.org/1999/xlink" version="1.1" width="1000" height="1000" viewBox="0 0 1000 1000" xml:space="preserve">
<desc>Created with Fabric.js 3.5.0</desc>
<defs>
</defs>
<rect x="0" y="0" width="100%" height="100%" fill="#ffffff"/>
<g transform="matrix(36.3636 0 0 36.3636 499.9995 499.9995)" id="803106">
<path style="stroke: none; stroke-width: 1; stroke-dasharray: none; stroke-linecap: butt; stroke-dashoffset: 0; stroke-linejoin: miter; stroke-miterlimit: 4; is-custom-font: none; font-file-url: none; fill: rgb(128,0,128); fill-rule: nonzero; opacity: 1;" vector-effect="non-scaling-stroke" transform=" translate(-12.5, -12.5)" d="M 12.5 -3.15905e-8 C 19.4034 -3.15905e-8 25 5.59656 25 12.5 C 25 19.4034 19.4034 25 12.5 25 C 5.59625 25 -3.15905e-8 19.4034 -3.15905e-8 12.5 C -3.15905e-8 5.59656 5.59625 -3.15905e-8 12.5 -3.15905e-8 Z M 20.0212 16.6184 L 20.0172 8.57719 L 15.2266 11.8744 L 20.0212 16.6184 Z M 14.4381 12.3172 L 12.7331 13.4597 C 12.6606 13.5069 12.5766 13.5313 12.4944 13.5313 C 12.4113 13.5313 12.3288 13.5072 12.2563 13.46 L 10.5109 12.2834 L 5.57156 17.1703 L 19.4366 17.1703 L 14.4381 12.3172 Z M 9.76844 11.7825 L 4.98969 8.56063 L 4.98969 16.5888 L 9.76844 11.7825 Z M 12.4941 12.5734 L 19.4353 7.91062 L 5.58312 7.91062 L 12.4941 12.5734 Z" stroke-linecap="round"/>
</g>
</svg>