<?xml version="1.0" encoding="UTF-8" standalone="no" ?>
<!DOCTYPE svg PUBLIC "-//W3C//DTD SVG 1.1//EN" "http://www.w3.org/Graphics/SVG/1.1/DTD/svg11.dtd">
<svg xmlns="http://www.w3.org/2000/svg" xmlns:xlink="http://www.w3.org/1999/xlink" version="1.1" width="25" height="25" viewBox="0 0 25 25" xml:space="preserve">
<desc>Created with Fabric.js 5.2.4</desc>
<defs>
</defs>
<g transform="matrix(1 0 0 1 12.5 12.5)" id="984444a8-0810-4461-9957-cf42edcfdbb1"  >
<rect style="stroke: none; stroke-width: 1; stroke-dasharray: none; stroke-linecap: butt; stroke-dashoffset: 0; stroke-linejoin: miter; stroke-miterlimit: 4; fill: rgb(255,255,255); fill-rule: nonzero; opacity: 1; visibility: hidden;" vector-effect="non-scaling-stroke"  x="-12.5" y="-12.5" rx="0" ry="0" width="25" height="25" />
</g>
<g transform="matrix(Infinity NaN NaN Infinity 0 0)" id="4abd7986-4e99-4ccf-bb56-554e02665fdc"  >
</g>
<g transform="matrix(1 0 0 1 12.5 12.5)" id="85345968-1f22-49d7-82c6-1fd116c69637"  >
<path style="stroke: rgb(0,0,0); stroke-width: 0; stroke-dasharray: none; stroke-linecap: butt; stroke-dashoffset: 0; stroke-linejoin: miter; stroke-miterlimit: 4; fill: rgb(128,0,128); fill-rule: nonzero; opacity: 1;" vector-effect="non-scaling-stroke"  transform=" translate(-12.5, -12.5)" d="M 12.5 -3.15905e-8 C 19.4034 -3.15905e-8 25 5.59656 25 12.5 C 25 19.4034 19.4034 25 12.5 25 C 5.59625 25 -3.15905e-8 19.4034 -3.15905e-8 12.5 C -3.15905e-8 5.59656 5.59625 -3.15905e-8 12.5 -3.15905e-8 Z M 20.0212 16.6184 L 20.0172 8.57719 L 15.2266 11.8744 L 20.0212 16.6184 Z M 14.4381 12.3172 L 12.7331 13.4597 C 12.6606 13.5069 12.5766 13.5313 12.4944 13.5313 C 12.4113 13.5313 12.3288 13.5072 12.2563 13.46 L 10.5109 12.2834 L 5.57156 17.1703 L 19.4366 17.1703 L 14.4381 12.3172 Z M 9.76844 11.7825 L 4.98969 8.56063 L 4.98969 16.5888 L 9.76844 11.7825 Z M 12.4941 12.5734 L 19.4353 7.91062 L 5.58312 7.91062 L 12.4941 12.5734 Z" stroke-linecap="round" />
</g>
<g transform="matrix(NaN NaN NaN NaN 0 0)"  >
<g style=""   >
</g>
</g>
<g transform="matrix(NaN NaN NaN NaN 0 0)"  >
<g style=""   >
</g>
</g>
</svg>