<?xml version="1.0" encoding="UTF-8" standalone="no" ?>
<!DOCTYPE svg PUBLIC "-//W3C//DTD SVG 1.1//EN" "http://www.w3.org/Graphics/SVG/1.1/DTD/svg11.dtd">
<svg xmlns="http://www.w3.org/2000/svg" xmlns:xlink="http://www.w3.org/1999/xlink" version="1.1" width="25" height="25" viewBox="0 0 25 25" xml:space="preserve">
<desc>Created with Fabric.js 5.2.4</desc>
<defs>
</defs>
<g transform="matrix(1 0 0 1 12.5 12.5)" id="93bde704-8fe0-4a5c-a37f-299d09588d2c"  >
<rect style="stroke: none; stroke-width: 1; stroke-dasharray: none; stroke-linecap: butt; stroke-dashoffset: 0; stroke-linejoin: miter; stroke-miterlimit: 4; fill: rgb(255,255,255); fill-rule: nonzero; opacity: 1; visibility: hidden;" vector-effect="non-scaling-stroke"  x="-12.5" y="-12.5" rx="0" ry="0" width="25" height="25" />
</g>
<g transform="matrix(Infinity NaN NaN Infinity 0 0)" id="dad9c141-ed90-450f-9428-b7d9b97af1dc"  >
</g>
<g transform="matrix(1 0 0 1 12.5 12.5)" id="9b5990a4-d46e-4029-8e29-2647a7aa22b8"  >
<path style="stroke: rgb(0,0,0); stroke-width: 0; stroke-dasharray: none; stroke-linecap: butt; stroke-dashoffset: 0; stroke-linejoin: miter; stroke-miterlimit: 4; fill: rgb(128,0,128); fill-rule: nonzero; opacity: 1;" vector-effect="non-scaling-stroke"  transform=" translate(-12.5, -12.5)" d="M 12.5 25 C 5.59625 25 0 19.4037 0 12.5 C 0 5.59625 5.59625 0 12.5 0 C 19.4037 0 25 5.59625 25 12.5 C 25 19.4037 19.4037 25 12.5 25 Z M 15.1038 14.0625 C 14.425 14.6088 13.8925 15.31 13.5538 16.1125 C 11.4525 15.1875 9.8125 13.5475 8.8775 11.5175 C 9.69 11.1075 10.39 10.575 10.9288 9.90625 C 10.7913 8.39125 10.01 7.09375 8.8675 6.26 C 7.34375 6.81125 6.2825 8.22625 6.24875 9.8925 C 6.36375 14.6437 10.1063 18.4825 14.8038 18.7488 C 16.575 18.7275 18.07 17.675 18.7375 16.1737 C 17.905 14.99 16.6075 14.2088 15.1225 14.0638 L 15.1038 14.0625 Z" stroke-linecap="round" />
</g>
<g transform="matrix(NaN NaN NaN NaN 0 0)"  >
<g style=""   >
</g>
</g>
<g transform="matrix(NaN NaN NaN NaN 0 0)"  >
<g style=""   >
</g>
</g>
</svg>