<svg xmlns="http://www.w3.org/2000/svg" xmlns:xlink="http://www.w3.org/1999/xlink" version="1.1" width="1000" height="1000" viewBox="0 0 1000 1000" xml:space="preserve">
<desc>Created with Fabric.js 3.5.0</desc>
<defs>
</defs>
<rect x="0" y="0" width="100%" height="100%" fill="#ffffff"/>
<g transform="matrix(36.3636 0 0 36.3636 499.9995 499.9995)" id="209482">
<path style="stroke: none; stroke-width: 1; stroke-dasharray: none; stroke-linecap: butt; stroke-dashoffset: 0; stroke-linejoin: miter; stroke-miterlimit: 4; is-custom-font: none; font-file-url: none; fill: rgb(128,0,128); fill-rule: nonzero; opacity: 1;" vector-effect="non-scaling-stroke" transform=" translate(-12.5, -12.5)" d="M 12.5 25 C 5.59625 25 0 19.4037 0 12.5 C 0 5.59625 5.59625 0 12.5 0 C 19.4037 0 25 5.59625 25 12.5 C 25 19.4037 19.4037 25 12.5 25 Z M 15.1038 14.0625 C 14.425 14.6088 13.8925 15.31 13.5538 16.1125 C 11.4525 15.1875 9.8125 13.5475 8.8775 11.5175 C 9.69 11.1075 10.39 10.575 10.9288 9.90625 C 10.7913 8.39125 10.01 7.09375 8.8675 6.26 C 7.34375 6.81125 6.2825 8.22625 6.24875 9.8925 C 6.36375 14.6437 10.1063 18.4825 14.8038 18.7488 C 16.575 18.7275 18.07 17.675 18.7375 16.1737 C 17.905 14.99 16.6075 14.2088 15.1225 14.0638 L 15.1038 14.0625 Z" stroke-linecap="round"/>
</g>
</svg>